<svg{{ with .size }} height="{{ . }}" {{ end }} style="enable-background:new 0 0 67 67;" version="1.1" viewBox="0 0 67 67" width="{{ .size }}" xml:space="preserve" xmlns="http://www.w3.org/2000/svg"
 width="64.000000pt" height="64.000000pt" viewBox="0 0 64.000000 64.000000"
 preserveAspectRatio="xMidYMid meet">
<metadata>
Created by potrace 1.15, written by Peter Selinger 2001-2017
</metadata>
<g transform="translate(0.000000,64.000000) scale(0.100000,-0.100000)"
fill="#000000" stroke="none">
<path d="M194 619 c-70 -27 -147 -105 -174 -176 -46 -123 -18 -262 71 -352 90
-89 229 -117 352 -71 73 27 150 104 177 177 27 72 27 174 0 246 -27 73 -104
150 -177 177 -71 26 -179 26 -249 -1z m98 -209 c23 -28 23 -35 -1 -59 -19 -19
-19 -20 -1 -33 29 -21 33 -52 9 -81 -18 -24 -27 -27 -85 -27 l-64 0 0 108 c0
60 3 112 8 116 4 4 31 6 61 4 41 -4 59 -10 73 -28z m183 10 c19 -16 19 -54 0
-70 -14 -12 -13 -15 5 -35 25 -27 26 -59 0 -85 -16 -16 -33 -20 -80 -20 l-60
0 0 116 0 117 60 -6 c34 -3 67 -11 75 -17z"/>
</g>
</svg>
