<svg{{ with .size }} height="{{ . }}" {{ end }} style="enable-background:new 0 0 67 67;" version="1.1" viewBox="0 0 67 67" width="{{ .size }}" xml:space="preserve" xmlns="http://www.w3.org/2000/svg">
  <path fill="none" stroke="black" stroke-width="1"
        d="M 37.00,6.46
           C 18.13,10.67 3.24,26.14 3.00,46.00
             2.95,50.24 2.78,54.86 3.67,59.00
             7.58,77.30 24.14,91.77 43.00,92.00
             51.89,92.10 56.69,92.20 65.00,88.21
             91.51,75.50 97.70,38.88 76.91,18.09
             65.96,7.14 51.88,4.41 37.00,6.46 Z
           M 23.00,62.00
           C 23.00,62.00 23.00,33.00 23.00,33.00
             27.46,33.00 38.40,32.14 41.72,34.74
             46.20,38.24 43.43,42.64 43.62,46.00
             43.77,48.64 47.35,56.05 41.77,60.26
             38.32,62.87 27.55,62.00 23.00,62.00 Z
           M 50.00,62.00
           C 50.00,62.00 50.00,33.00 50.00,33.00
             54.46,33.00 65.40,32.14 68.72,34.74
             73.20,38.24 70.43,42.64 70.62,46.00
             70.77,48.64 74.35,56.05 68.77,60.26
             65.32,62.87 54.55,62.00 50.00,62.00 Z
           M 30.00,38.00
           C 30.00,38.00 30.00,44.00 30.00,44.00
             30.00,44.00 37.00,43.00 37.00,43.00
             37.00,43.00 37.00,39.00 37.00,39.00
             37.00,39.00 30.00,38.00 30.00,38.00 Z
           M 57.00,38.00
           C 57.00,38.00 57.00,44.00 57.00,44.00
             57.00,44.00 64.00,43.00 64.00,43.00
             64.00,43.00 64.00,39.00 64.00,39.00
             64.00,39.00 57.00,38.00 57.00,38.00 Z
           M 30.00,49.00
           C 30.00,49.00 30.00,57.00 30.00,57.00
             40.18,56.04 39.99,49.59 30.00,49.00 Z
           M 57.00,49.00
           C 57.00,49.00 57.00,57.00 57.00,57.00
             67.18,56.04 66.99,49.59 57.00,49.00 Z" />
</svg>
