<svg{{ with .size }} height="{{ . }}" {{ end }} style="enable-background:new 0 0 67 67;" version="1.1" viewBox="0 0 67 67" width="{{ .size }}" xml:space="preserve" xmlns="http://www.w3.org/2000/svg"
 width="64.000000pt" height="64.000000pt" viewBox="0 0 64.000000 64.000000"
 preserveAspectRatio="xMidYMid meet">
<metadata>
Created by potrace 1.15, written by Peter Selinger 2001-2017
</metadata>
<g transform="translate(0.000000,64.000000) scale(0.100000,-0.100000)"
fill="#000000" stroke="none">
<path d="M194 619 c-70 -27 -147 -105 -174 -176 -46 -123 -18 -262 71 -352 90
-89 229 -117 352 -71 73 27 150 104 177 177 27 72 27 174 0 246 -27 73 -104
150 -177 177 -71 26 -179 26 -249 -1z m250 -152 c34 -23 49 -84 44 -174 -6
-89 -24 -118 -80 -134 -57 -15 -180 -7 -212 14 -34 23 -49 85 -44 174 8 121
39 145 184 140 56 -2 90 -9 108 -20z"/>
<path d="M222 450 c-33 -14 -44 -55 -40 -147 4 -113 10 -118 138 -118 82 0
102 3 117 18 15 15 18 35 18 117 0 129 -4 134 -123 137 -48 2 -97 -2 -110 -7z
m132 -54 c100 -42 38 -190 -65 -154 -67 23 -71 125 -5 154 38 16 31 16 70 0z"/>
</g>
</svg>
