<svg{{ with .size }} height="{{ . }}" {{ end }} style="enable-background:new 0 0 67 67;" version="1.1" viewBox="0 0 67 67" width="{{ .size }}" xml:space="preserve" xmlns="http://www.w3.org/2000/svg"
 width="64.000000pt" height="64.000000pt" viewBox="0 0 64.000000 64.000000"
 preserveAspectRatio="xMidYMid meet">
<metadata>
Created by potrace 1.15, written by Peter Selinger 2001-2017
</metadata>
<g transform="translate(0.000000,64.000000) scale(0.100000,-0.100000)"
fill="#000000" stroke="none">
<path d="M194 619 c-70 -27 -147 -105 -174 -176 -46 -123 -18 -262 71 -352 90
-89 229 -117 352 -71 73 27 150 104 177 177 27 72 27 174 0 246 -27 73 -104
150 -177 177 -71 26 -179 26 -249 -1z m269 -171 c22 -1 25 -4 16 -14 -8 -10
-8 -14 -1 -14 7 0 5 -10 -4 -27 -7 -16 -14 -36 -14 -46 0 -24 -33 -88 -56
-108 -53 -47 -139 -63 -201 -38 l-28 12 31 7 c51 11 60 21 33 36 -13 7 -24 18
-24 26 -1 7 -9 26 -20 41 -13 20 -15 31 -7 36 7 4 8 12 2 21 -13 19 -13 60 -1
60 6 0 13 -5 16 -10 10 -16 82 -50 105 -50 12 0 20 7 20 17 0 9 10 27 22 41
18 19 29 22 53 17 16 -4 42 -7 58 -7z"/>
</g>
</svg>
