<svg{{ with .size }} height="{{ . }}" {{ end }} style="enable-background:new 0 0 67 67;" version="1.1" viewBox="0 0 67 67" width="{{ .size }}" xml:space="preserve" xmlns="http://www.w3.org/2000/svg">
<metadata>
Created by potrace 1.15, written by Peter Selinger 2001-2017
</metadata>
<g transform="translate(0.000000,67.000000) scale(0.100000,-0.100000)" >
<path d="M194 619 c-70 -27 -147 -105 -174 -176 -46 -123 -18 -262 71 -352 90
-89 229 -117 352 -71 73 27 150 104 177 177 27 72 27 174 0 246 -27 73 -104
150 -177 177 -71 26 -179 26 -249 -1z m187 -145 c18 -16 19 -16 19 0 0 11 6
16 18 14 14 -3 17 -17 20 -98 5 -143 -4 -198 -38 -232 -24 -24 -36 -28 -83
-28 -44 0 -59 5 -81 25 -14 13 -26 29 -26 35 0 19 29 10 55 -16 51 -51 135
-11 135 64 0 33 -1 34 -18 19 -29 -26 -75 -31 -114 -13 -45 22 -63 56 -63 122
0 57 22 98 66 122 30 16 85 9 110 -14z"/>
<path d="M273 455 c-33 -23 -48 -79 -34 -126 33 -111 161 -82 161 36 0 86 -66
133 -127 90z"/>
</g>
</svg>
