<svg{{ with .size }} height="{{ . }}" {{ end }} style="enable-background:new 0 0 67 67;" version="1.1" viewBox="0 0 67 67" width="{{ .size }}" xml:space="preserve" xmlns="http://www.w3.org/2000/svg">
<metadata>
Created by potrace 1.15, written by Peter Selinger 2001-2017
</metadata>
<g transform="translate(0.000000,64.000000) scale(0.100000,-0.100000)">
<path d="M194 619 c-70 -27 -147 -105 -174 -176 -46 -123 -18 -262 71 -352 90
-89 229 -117 352 -71 73 27 150 104 177 177 27 72 27 174 0 246 -27 73 -104
150 -177 177 -71 26 -179 26 -249 -1z m183 -140 c89 -33 111 -146 44 -218 -30
-32 -79 -41 -110 -22 -11 7 -18 -2 -32 -40 -9 -28 -21 -55 -28 -62 -16 -16
-14 65 3 129 7 29 11 63 9 77 -6 33 13 67 38 67 28 0 33 -23 19 -76 -11 -39
-11 -47 3 -61 14 -15 18 -15 42 1 53 35 61 112 15 158 -26 25 -36 29 -63 24
-71 -14 -113 -78 -88 -133 17 -37 -1 -51 -29 -23 -18 18 -21 30 -17 67 10 91
105 146 194 112z"/>
</g>
</svg>
