<svg id="svg" version="1.1" xmlns="http://www.w3.org/2000/svg" xmlns:xlink="http://www.w3.org/1999/xlink" width="400" height="400" viewBox="0, 0, 400,400"><g id="svgg"><path id="path0" d="M101.600 130.654 C 100.830 131.247,99.525 132.369,98.700 133.147 L 97.200 134.562 97.200 200.244 L 97.200 265.925 100.172 267.163 L 103.144 268.400 124.395 268.400 C 156.749 268.400,167.220 267.608,169.267 265.006 C 170.181 263.844,175.099 261.387,177.322 260.981 C 178.346 260.794,179.454 260.118,180.708 258.917 C 181.733 257.935,183.041 256.889,183.616 256.592 C 184.854 255.951,187.123 253.447,188.088 251.654 C 188.467 250.951,189.321 250.067,189.987 249.688 C 191.454 248.854,191.673 248.225,193.151 240.600 C 195.911 226.356,193.316 210.287,187.982 208.594 C 187.615 208.478,186.482 207.310,185.464 206.000 C 183.561 203.549,179.946 201.278,176.896 200.617 C 171.281 199.401,166.177 192.592,168.793 189.808 C 169.712 188.829,176.774 185.200,177.759 185.200 C 178.091 185.200,178.702 184.433,179.117 183.496 C 179.993 181.513,181.857 179.524,183.470 178.849 C 185.427 178.030,186.757 173.808,188.563 162.680 C 189.096 159.396,188.979 158.393,187.037 149.620 C 186.090 145.343,180.492 138.918,177.125 138.245 C 176.423 138.105,175.118 137.223,174.089 136.195 C 171.646 133.751,168.131 132.738,158.200 131.614 C 154.020 131.141,149.790 130.559,148.800 130.322 C 147.671 130.051,138.800 129.832,125.000 129.733 L 103.000 129.576 101.600 130.654 M214.655 131.950 L 213.600 134.300 213.600 200.119 L 213.600 265.939 214.636 267.169 L 215.671 268.400 238.536 268.386 C 272.778 268.364,284.136 267.509,285.718 264.832 C 286.447 263.596,288.202 262.635,293.200 260.730 C 295.933 259.688,296.932 259.068,298.293 257.566 C 299.224 256.538,300.664 255.383,301.493 254.998 C 303.382 254.121,304.400 253.245,304.400 252.497 C 304.400 251.521,307.494 245.252,308.963 243.251 C 312.485 238.452,311.898 217.993,308.143 214.696 C 307.326 213.979,306.489 212.630,305.957 211.171 C 305.217 209.141,304.798 208.611,302.974 207.400 C 301.806 206.625,300.483 205.498,300.034 204.896 C 298.447 202.767,297.446 202.043,295.434 201.566 C 292.528 200.877,286.898 198.121,286.190 197.041 C 285.859 196.536,285.141 194.981,284.594 193.584 L 283.599 191.045 284.699 189.872 C 285.815 188.683,289.302 186.808,290.400 186.807 C 290.730 186.807,292.260 185.527,293.800 183.963 C 295.340 182.399,297.187 180.552,297.905 179.859 C 298.623 179.167,299.420 177.916,299.675 177.081 C 300.098 175.693,302.036 173.521,303.197 173.134 C 304.224 172.792,304.903 168.616,305.097 161.449 C 305.349 152.169,304.886 150.157,301.701 146.692 C 300.507 145.394,299.259 143.672,298.927 142.866 C 298.192 141.080,296.881 139.601,296.030 139.596 C 294.863 139.589,291.414 137.720,289.600 136.113 C 286.475 133.343,284.296 132.728,273.600 131.599 C 271.290 131.356,267.079 130.806,264.242 130.378 C 259.616 129.680,256.845 129.600,237.396 129.600 L 215.709 129.600 214.655 131.950 M142.400 147.800 C 154.173 148.987,156.235 149.642,157.941 152.734 C 158.460 153.675,159.554 154.888,160.373 155.429 C 163.250 157.333,163.761 158.923,163.771 165.999 C 163.781 173.216,163.456 174.527,160.996 177.178 C 160.066 178.180,159.014 179.571,158.659 180.268 C 157.910 181.737,156.521 182.786,154.042 183.754 C 153.075 184.131,151.933 184.886,151.504 185.431 C 149.485 187.998,145.315 188.794,134.000 188.774 C 122.305 188.752,122.405 188.926,122.113 168.068 C 121.808 146.241,122.277 145.772,142.400 147.800 M259.992 148.010 C 269.847 149.150,274.800 150.924,274.800 153.313 C 274.800 153.513,275.139 154.154,275.553 154.738 C 276.934 156.686,280.365 163.606,280.618 164.953 C 280.924 166.589,279.770 171.495,278.819 172.600 C 278.096 173.439,276.714 176.296,276.207 178.000 C 275.518 180.312,274.303 181.647,271.819 182.820 C 270.451 183.467,268.617 184.697,267.743 185.553 C 263.434 189.777,241.319 190.109,238.319 185.996 C 236.481 183.476,236.012 155.109,237.747 151.383 C 239.732 147.121,245.173 146.296,259.992 148.010 M147.878 206.026 C 153.370 206.484,155.417 207.147,157.660 209.196 C 158.319 209.798,159.558 210.500,160.411 210.756 C 162.267 211.312,164.205 212.863,165.024 214.447 C 165.352 215.081,166.391 216.370,167.334 217.313 C 171.420 221.399,171.438 235.383,167.362 239.459 C 166.435 240.386,165.115 241.961,164.429 242.958 C 163.504 244.303,162.570 245.053,160.819 245.856 C 159.520 246.453,158.375 247.252,158.275 247.633 C 157.544 250.431,152.996 251.281,138.400 251.348 C 125.676 251.406,125.637 251.399,123.439 248.667 L 122.206 247.133 122.203 230.867 C 122.199 208.929,122.363 207.997,126.537 206.181 C 128.119 205.493,140.400 205.404,147.878 206.026 M263.400 205.987 C 268.314 206.420,270.916 207.191,273.532 208.991 C 274.638 209.752,276.708 210.925,278.132 211.598 C 281.073 212.987,281.603 213.643,283.055 217.698 C 283.627 219.294,284.636 221.766,285.297 223.191 C 287.128 227.133,287.036 231.006,285.037 234.200 C 284.761 234.640,284.026 236.440,283.403 238.200 C 281.931 242.360,280.998 243.567,278.148 245.003 C 276.857 245.654,275.096 246.956,274.235 247.897 C 271.542 250.841,264.575 251.868,249.800 251.500 C 236.132 251.159,236.562 252.024,236.906 225.579 C 237.113 209.665,237.175 209.194,239.283 207.488 C 241.491 205.701,252.427 205.021,263.400 205.987 " stroke="none" fill="#f1f1f1" fill-rule="evenodd"></path><path id="path1" d="M99.800 125.840 C 93.262 127.261,93.822 120.526,93.695 199.292 C 93.576 273.155,93.377 267.366,96.120 269.917 C 98.752 272.365,136.178 273.094,153.000 271.025 C 157.400 270.484,162.780 269.849,164.956 269.614 C 169.511 269.123,171.828 268.229,174.192 266.050 C 175.112 265.202,176.900 264.121,178.165 263.647 C 181.496 262.401,182.616 261.757,184.188 260.185 C 184.959 259.415,186.029 258.617,186.566 258.413 C 187.104 258.208,188.141 257.214,188.872 256.202 C 189.602 255.191,190.962 253.441,191.893 252.314 C 193.536 250.324,193.842 249.674,195.519 244.600 C 195.955 243.280,196.982 240.600,197.800 238.644 C 199.758 233.967,200.044 227.108,198.454 223.000 C 197.943 221.680,196.818 218.559,195.954 216.064 C 193.090 207.793,188.737 202.634,181.551 198.996 C 177.521 196.956,174.800 194.560,174.800 193.053 C 174.800 192.838,174.490 192.320,174.110 191.901 C 173.254 190.955,174.022 190.235,177.883 188.362 C 179.806 187.430,180.713 186.670,181.901 184.995 C 182.745 183.806,184.186 182.289,185.103 181.624 C 187.006 180.246,187.363 179.642,189.374 174.400 C 190.176 172.310,190.992 170.240,191.187 169.800 C 193.701 164.147,193.733 155.729,191.259 151.125 C 190.630 149.956,189.685 147.741,189.158 146.202 C 187.987 142.782,184.226 138.550,180.434 136.385 C 179.100 135.623,177.242 134.318,176.304 133.485 C 174.484 131.868,172.726 131.207,165.553 129.446 C 163.218 128.873,160.608 128.111,159.753 127.753 C 154.383 125.503,108.142 124.028,99.800 125.840 M214.600 125.929 C 212.718 127.115,212.115 128.017,211.434 130.658 C 210.340 134.898,210.482 265.809,211.582 267.966 C 212.462 269.689,214.407 271.486,215.761 271.826 C 218.464 272.504,264.269 271.730,270.200 270.906 C 273.500 270.447,278.132 269.880,280.493 269.645 C 285.533 269.142,286.998 268.608,289.237 266.457 C 290.439 265.302,291.878 264.510,294.471 263.574 C 297.517 262.476,298.400 261.938,300.426 259.942 C 301.735 258.654,302.984 257.600,303.201 257.600 C 304.237 257.600,306.733 254.665,307.635 252.387 C 308.166 251.046,309.276 249.129,310.103 248.128 C 315.345 241.774,315.329 216.248,310.080 211.938 C 309.452 211.422,308.450 209.977,307.853 208.727 C 307.256 207.477,306.100 205.906,305.284 205.234 C 303.704 203.935,303.086 203.350,301.148 201.321 C 300.421 200.559,298.768 199.601,297.063 198.953 C 294.425 197.949,291.600 195.744,291.600 194.689 C 291.600 194.494,290.976 193.574,290.214 192.644 L 288.829 190.953 291.622 189.444 C 294.984 187.628,300.641 182.207,301.910 179.585 C 302.390 178.594,303.579 177.002,304.552 176.047 C 306.612 174.026,307.025 172.779,307.599 166.858 C 308.776 154.706,307.453 147.300,303.385 143.264 C 302.183 142.072,301.200 140.946,301.200 140.762 C 301.200 139.920,298.486 137.475,296.519 136.545 C 295.324 135.979,293.593 134.796,292.673 133.916 C 290.688 132.016,290.394 131.888,284.200 130.209 C 281.560 129.494,277.903 128.440,276.073 127.867 C 268.936 125.634,266.716 125.476,240.200 125.317 C 216.815 125.178,215.750 125.203,214.600 125.929 M153.600 127.726 C 156.350 128.305,159.680 129.049,161.000 129.378 C 162.320 129.707,165.380 130.452,167.800 131.032 C 172.770 132.225,173.703 132.628,175.607 134.406 C 176.347 135.098,177.774 136.082,178.777 136.592 C 183.373 138.929,187.342 143.422,188.856 148.000 C 189.329 149.430,190.122 151.410,190.619 152.400 C 192.399 155.943,192.220 163.593,190.228 169.200 C 187.037 178.179,186.713 178.829,184.472 180.760 C 183.298 181.772,181.726 183.449,180.979 184.487 C 180.193 185.579,178.900 186.736,177.910 187.235 C 176.970 187.709,175.178 188.723,173.928 189.488 L 171.657 190.879 173.228 193.446 C 174.093 194.859,174.800 196.197,174.800 196.420 C 174.800 196.643,177.226 197.992,180.191 199.417 C 185.139 201.796,185.713 202.188,187.185 204.180 C 188.067 205.374,189.454 206.857,190.266 207.475 C 191.810 208.651,194.431 213.593,195.000 216.400 C 195.157 217.170,195.935 219.780,196.729 222.200 C 198.001 226.071,198.166 227.033,198.104 230.200 C 197.925 239.330,190.770 255.072,185.488 257.958 C 184.841 258.311,183.578 259.272,182.680 260.094 C 181.766 260.931,179.843 262.048,178.310 262.634 C 176.804 263.210,174.502 264.485,173.195 265.467 C 169.965 267.895,167.346 268.732,161.499 269.202 C 158.804 269.419,154.080 269.877,151.000 270.220 C 146.421 270.731,141.353 270.820,123.200 270.708 C 98.005 270.552,97.682 270.515,95.738 267.579 L 94.791 266.147 94.895 199.373 L 95.000 132.600 95.906 130.362 C 96.803 128.144,96.834 128.117,99.306 127.414 C 100.678 127.025,101.980 126.645,102.200 126.571 C 102.420 126.497,112.950 126.489,125.600 126.554 L 148.600 126.672 153.600 127.726 M267.200 127.322 C 286.458 131.379,289.591 132.329,292.155 134.893 C 292.813 135.551,294.504 136.640,295.914 137.313 C 297.929 138.276,298.824 139.014,300.103 140.769 C 300.998 141.996,302.497 143.833,303.435 144.851 C 308.169 149.989,308.589 171.527,304.026 175.099 C 303.356 175.623,302.159 177.165,301.365 178.526 C 299.359 181.965,293.083 188.044,290.600 188.951 C 290.160 189.112,289.235 189.629,288.544 190.100 L 287.288 190.955 288.310 192.578 C 290.738 196.431,292.086 197.652,295.878 199.429 C 300.234 201.471,306.453 207.148,307.934 210.435 C 308.388 211.444,309.048 212.508,309.399 212.799 C 314.195 216.779,314.530 240.205,309.882 246.527 C 309.397 247.187,308.179 249.363,307.175 251.363 C 305.604 254.492,305.046 255.211,303.175 256.508 C 301.979 257.338,300.190 258.791,299.200 259.738 C 298.210 260.685,296.500 261.788,295.400 262.189 C 291.528 263.603,290.183 264.293,288.433 265.764 C 285.849 267.936,284.999 268.270,280.799 268.771 C 265.991 270.535,266.219 270.524,240.645 270.690 L 215.489 270.854 213.970 269.370 C 213.134 268.554,212.256 267.417,212.019 266.843 C 211.716 266.109,211.620 246.089,211.694 199.200 C 211.812 125.327,211.626 130.354,214.338 127.475 L 215.397 126.351 239.798 126.521 C 260.025 126.661,264.713 126.798,267.200 127.322 M126.351 150.755 L 124.600 152.310 124.600 166.655 C 124.600 183.816,124.673 184.440,126.840 185.874 L 128.427 186.924 135.113 186.658 C 143.150 186.339,146.550 185.736,148.437 184.297 C 149.199 183.716,150.832 182.854,152.067 182.382 C 154.979 181.268,156.915 179.641,158.001 177.397 C 158.482 176.405,159.187 175.370,159.569 175.097 C 162.203 173.214,162.957 158.400,160.419 158.400 C 160.244 158.400,159.313 157.554,158.350 156.519 C 153.366 151.164,153.681 151.385,150.000 150.676 C 148.130 150.316,143.270 149.836,139.200 149.611 C 127.930 148.986,128.390 148.945,126.351 150.755 M243.978 150.031 C 238.996 151.202,239.204 150.508,239.202 165.967 C 239.199 187.045,239.343 187.268,252.600 186.636 C 262.592 186.160,274.800 180.580,274.800 176.489 C 274.800 176.056,275.141 174.914,275.558 173.951 C 279.420 165.028,275.410 153.897,267.302 151.036 C 263.542 149.709,248.166 149.047,243.978 150.031 M150.200 151.596 C 152.624 152.207,153.620 152.669,154.308 153.501 C 157.473 157.331,158.139 158.023,159.100 158.486 C 161.944 159.854,161.946 171.356,159.103 174.322 C 158.323 175.135,157.310 176.550,156.851 177.466 C 155.856 179.457,154.318 180.630,151.672 181.416 C 150.597 181.735,149.031 182.462,148.191 183.032 C 144.856 185.295,129.393 186.807,127.170 185.087 C 125.612 183.882,125.200 179.907,125.200 166.059 L 125.200 152.883 126.684 151.580 L 128.167 150.278 137.584 150.534 C 145.064 150.738,147.658 150.956,150.200 151.596 M260.187 150.852 C 266.968 151.397,268.157 151.873,271.907 155.542 L 274.625 158.200 275.313 162.099 C 276.080 166.445,275.618 171.604,274.045 176.263 C 273.156 178.897,272.804 179.257,270.200 180.184 C 269.100 180.576,267.777 181.161,267.260 181.483 C 266.744 181.806,265.313 182.417,264.082 182.841 C 262.850 183.264,261.456 183.864,260.984 184.174 C 257.294 186.592,243.051 186.001,241.581 183.369 C 239.770 180.127,239.083 154.154,240.769 152.628 C 243.104 150.514,249.136 149.963,260.187 150.852 M126.750 208.402 C 124.742 209.463,124.746 209.432,124.547 226.400 C 124.324 245.392,124.493 247.426,126.400 248.721 L 127.800 249.672 138.000 249.486 C 150.188 249.263,152.627 248.887,155.400 246.798 C 156.500 245.969,158.120 244.927,159.000 244.481 C 160.790 243.574,163.600 241.193,163.600 240.583 C 163.600 240.364,164.335 239.296,165.233 238.209 C 168.018 234.839,168.145 234.412,168.156 228.400 C 168.166 222.359,167.949 221.643,165.141 218.444 C 164.294 217.478,163.600 216.458,163.600 216.178 C 163.600 215.588,160.105 212.404,159.444 212.391 C 159.039 212.383,156.581 211.202,153.341 209.460 C 150.238 207.791,129.470 206.964,126.750 208.402 M244.036 208.194 C 239.205 208.999,239.086 209.578,239.269 231.335 L 239.400 246.870 240.478 247.797 C 243.464 250.365,263.503 250.362,269.134 247.794 C 271.282 246.814,274.350 244.936,274.814 244.317 C 274.932 244.160,275.832 243.664,276.814 243.216 C 279.494 241.992,279.859 241.588,281.011 238.574 C 283.777 231.333,283.773 225.482,280.999 218.200 C 279.484 214.226,280.010 214.602,269.400 209.900 C 264.817 207.869,251.406 206.967,244.036 208.194 M145.010 208.811 C 146.765 209.037,149.640 209.740,151.400 210.372 C 160.794 213.746,161.421 214.108,162.891 217.000 C 163.338 217.880,164.380 219.338,165.206 220.241 C 168.343 223.668,168.321 233.626,165.170 236.619 C 164.486 237.269,163.563 238.520,163.117 239.400 C 162.089 241.433,160.765 242.585,158.000 243.854 C 156.790 244.408,155.260 245.375,154.600 246.001 C 152.629 247.870,148.981 248.441,137.600 248.663 L 127.800 248.854 126.600 247.865 L 125.400 246.877 125.270 231.138 C 125.134 214.565,125.431 210.991,127.105 209.100 C 127.840 208.269,139.362 208.083,145.010 208.811 M262.000 208.938 C 263.870 209.225,266.120 209.826,267.000 210.275 C 267.880 210.723,269.590 211.413,270.800 211.807 C 272.638 212.405,275.875 213.833,278.364 215.144 C 282.866 217.516,282.554 240.072,277.998 241.661 C 277.427 241.860,276.401 242.332,275.717 242.711 C 270.561 245.569,268.525 246.686,267.445 247.251 C 263.192 249.477,243.151 249.322,240.875 247.047 C 239.064 245.235,239.821 213.571,241.744 210.717 C 243.277 208.443,253.122 207.578,262.000 208.938 " stroke="none" fill="#6c6c6c" fill-rule="evenodd"></path><path id="path2" d="M102.200 126.571 C 101.980 126.645,100.678 127.025,99.306 127.414 C 96.834 128.117,96.803 128.144,95.906 130.362 L 95.000 132.600 94.895 199.373 L 94.791 266.147 95.738 267.579 C 97.682 270.515,98.005 270.552,123.200 270.708 C 141.353 270.820,146.421 270.731,151.000 270.220 C 154.080 269.877,158.804 269.419,161.499 269.202 C 167.346 268.732,169.965 267.895,173.195 265.467 C 174.502 264.485,176.804 263.210,178.310 262.634 C 179.843 262.048,181.766 260.931,182.680 260.094 C 183.578 259.272,184.841 258.311,185.488 257.958 C 190.770 255.072,197.925 239.330,198.104 230.200 C 198.166 227.033,198.001 226.071,196.729 222.200 C 195.935 219.780,195.157 217.170,195.000 216.400 C 194.431 213.593,191.810 208.651,190.266 207.475 C 189.454 206.857,188.067 205.374,187.185 204.180 C 185.713 202.188,185.139 201.796,180.191 199.417 C 177.226 197.992,174.800 196.643,174.800 196.420 C 174.800 196.197,174.093 194.859,173.228 193.446 L 171.657 190.879 173.928 189.488 C 175.178 188.723,176.970 187.709,177.910 187.235 C 178.900 186.736,180.193 185.579,180.979 184.487 C 181.726 183.449,183.298 181.772,184.472 180.760 C 186.713 178.829,187.037 178.179,190.228 169.200 C 192.220 163.593,192.399 155.943,190.619 152.400 C 190.122 151.410,189.329 149.430,188.856 148.000 C 187.342 143.422,183.373 138.929,178.777 136.592 C 177.774 136.082,176.347 135.098,175.607 134.406 C 173.703 132.628,172.770 132.225,167.800 131.032 C 165.380 130.452,162.320 129.707,161.000 129.378 C 159.680 129.049,156.350 128.305,153.600 127.726 L 148.600 126.672 125.600 126.554 C 112.950 126.489,102.420 126.497,102.200 126.571 M214.338 127.475 C 211.626 130.354,211.812 125.327,211.694 199.200 C 211.620 246.089,211.716 266.109,212.019 266.843 C 212.256 267.417,213.134 268.554,213.970 269.370 L 215.489 270.854 240.645 270.690 C 275.245 270.465,283.901 269.573,288.433 265.764 C 290.183 264.293,291.528 263.603,295.400 262.189 C 296.500 261.788,298.210 260.685,299.200 259.738 C 300.190 258.791,301.979 257.338,303.175 256.508 C 305.046 255.211,305.604 254.492,307.175 251.363 C 308.179 249.363,309.397 247.187,309.882 246.527 C 314.530 240.205,314.195 216.779,309.399 212.799 C 309.048 212.508,308.388 211.444,307.934 210.435 C 306.453 207.148,300.234 201.471,295.878 199.429 C 292.086 197.652,290.738 196.431,288.310 192.578 L 287.288 190.955 288.544 190.100 C 289.235 189.629,290.160 189.112,290.600 188.951 C 293.083 188.044,299.359 181.965,301.365 178.526 C 302.159 177.165,303.356 175.623,304.026 175.099 C 308.589 171.527,308.169 149.989,303.435 144.851 C 302.497 143.833,300.998 141.996,300.103 140.769 C 298.824 139.014,297.929 138.276,295.914 137.313 C 294.504 136.640,292.813 135.551,292.155 134.893 C 290.368 133.107,288.252 132.182,282.864 130.832 C 278.411 129.717,275.948 129.165,267.200 127.322 C 264.713 126.798,260.025 126.661,239.798 126.521 L 215.397 126.351 214.338 127.475 M148.800 130.322 C 149.790 130.559,154.020 131.141,158.200 131.614 C 168.131 132.738,171.646 133.751,174.089 136.195 C 175.118 137.223,176.423 138.105,177.125 138.245 C 180.492 138.918,186.090 145.343,187.037 149.620 C 188.979 158.393,189.096 159.396,188.563 162.680 C 186.757 173.808,185.427 178.030,183.470 178.849 C 181.857 179.524,179.993 181.513,179.117 183.496 C 178.702 184.433,178.091 185.200,177.759 185.200 C 176.774 185.200,169.712 188.829,168.793 189.808 C 166.177 192.592,171.281 199.401,176.896 200.617 C 179.946 201.278,183.561 203.549,185.464 206.000 C 186.482 207.310,187.615 208.478,187.982 208.594 C 193.316 210.287,195.911 226.356,193.151 240.600 C 191.673 248.225,191.454 248.854,189.987 249.688 C 189.321 250.067,188.467 250.951,188.088 251.654 C 187.123 253.447,184.854 255.951,183.616 256.592 C 183.041 256.889,181.733 257.935,180.708 258.917 C 179.454 260.118,178.346 260.794,177.322 260.981 C 175.099 261.387,170.181 263.844,169.267 265.006 C 167.220 267.608,156.749 268.400,124.395 268.400 L 103.144 268.400 100.172 267.163 L 97.200 265.925 97.200 200.244 L 97.200 134.562 98.700 133.147 C 99.525 132.369,100.830 131.247,101.600 130.654 L 103.000 129.576 125.000 129.733 C 138.800 129.832,147.671 130.051,148.800 130.322 M264.242 130.378 C 267.079 130.806,271.290 131.356,273.600 131.599 C 284.296 132.728,286.475 133.343,289.600 136.113 C 291.414 137.720,294.863 139.589,296.030 139.596 C 296.881 139.601,298.192 141.080,298.927 142.866 C 299.259 143.672,300.507 145.394,301.701 146.692 C 304.886 150.157,305.349 152.169,305.097 161.449 C 304.903 168.616,304.224 172.792,303.197 173.134 C 302.036 173.521,300.098 175.693,299.675 177.081 C 299.420 177.916,298.623 179.167,297.905 179.859 C 297.187 180.552,295.340 182.399,293.800 183.963 C 292.260 185.527,290.730 186.807,290.400 186.807 C 289.302 186.808,285.815 188.683,284.699 189.872 L 283.599 191.045 284.594 193.584 C 285.141 194.981,285.859 196.536,286.190 197.041 C 286.898 198.121,292.528 200.877,295.434 201.566 C 297.446 202.043,298.447 202.767,300.034 204.896 C 300.483 205.498,301.806 206.625,302.974 207.400 C 304.798 208.611,305.217 209.141,305.957 211.171 C 306.489 212.630,307.326 213.979,308.143 214.696 C 311.898 217.993,312.485 238.452,308.963 243.251 C 307.494 245.252,304.400 251.521,304.400 252.497 C 304.400 253.245,303.382 254.121,301.493 254.998 C 300.664 255.383,299.224 256.538,298.293 257.566 C 296.932 259.068,295.933 259.688,293.200 260.730 C 288.202 262.635,286.447 263.596,285.718 264.832 C 284.136 267.509,272.778 268.364,238.536 268.386 L 215.671 268.400 214.636 267.169 L 213.600 265.939 213.600 200.119 L 213.600 134.300 214.655 131.950 L 215.709 129.600 237.396 129.600 C 256.845 129.600,259.616 129.680,264.242 130.378 M126.496 147.798 C 122.218 149.657,121.878 151.230,122.113 168.068 C 122.405 188.926,122.305 188.752,134.000 188.774 C 145.315 188.794,149.485 187.998,151.504 185.431 C 151.933 184.886,153.075 184.131,154.042 183.754 C 156.521 182.786,157.910 181.737,158.659 180.268 C 159.014 179.571,160.066 178.180,160.996 177.178 C 165.442 172.385,165.045 158.521,160.373 155.429 C 159.554 154.888,158.460 153.675,157.941 152.734 C 156.235 149.642,154.173 148.987,142.400 147.800 C 134.925 147.047,128.227 147.046,126.496 147.798 M242.965 147.598 C 237.337 148.424,236.808 149.987,236.807 165.800 C 236.805 189.120,236.482 188.600,251.000 188.600 C 262.002 188.600,265.235 188.012,267.743 185.553 C 268.617 184.697,270.451 183.467,271.819 182.820 C 274.303 181.647,275.518 180.312,276.207 178.000 C 276.714 176.296,278.096 173.439,278.819 172.600 C 279.770 171.495,280.924 166.589,280.618 164.953 C 280.365 163.606,276.934 156.686,275.553 154.738 C 275.139 154.154,274.800 153.513,274.800 153.313 C 274.800 152.779,272.782 150.983,271.400 150.288 C 267.281 148.215,249.940 146.575,242.965 147.598 M139.200 149.611 C 143.270 149.836,148.130 150.316,150.000 150.676 C 153.681 151.385,153.366 151.164,158.350 156.519 C 159.313 157.554,160.244 158.400,160.419 158.400 C 162.957 158.400,162.203 173.214,159.569 175.097 C 159.187 175.370,158.482 176.405,158.001 177.397 C 156.915 179.641,154.979 181.268,152.067 182.382 C 150.832 182.854,149.199 183.716,148.437 184.297 C 146.550 185.736,143.150 186.339,135.113 186.658 L 128.427 186.924 126.840 185.874 C 124.673 184.440,124.600 183.816,124.600 166.655 L 124.600 152.310 126.351 150.755 C 128.390 148.945,127.930 148.986,139.200 149.611 M260.559 150.048 C 266.447 150.538,268.098 151.016,270.837 153.027 C 276.617 157.270,278.728 166.627,275.558 173.951 C 275.141 174.914,274.800 176.056,274.800 176.489 C 274.800 178.883,265.636 184.604,259.600 185.979 C 253.454 187.378,242.286 186.689,240.742 184.815 C 238.885 182.560,238.342 154.077,240.114 151.863 C 242.036 149.461,247.589 148.968,260.559 150.048 M126.537 206.181 C 122.363 207.997,122.199 208.929,122.203 230.867 L 122.206 247.133 123.439 248.667 C 125.637 251.399,125.676 251.406,138.400 251.348 C 152.996 251.281,157.544 250.431,158.275 247.633 C 158.375 247.252,159.520 246.453,160.819 245.856 C 162.570 245.053,163.504 244.303,164.429 242.958 C 165.115 241.961,166.435 240.386,167.362 239.459 C 171.438 235.383,171.420 221.399,167.334 217.313 C 166.391 216.370,165.352 215.081,165.024 214.447 C 164.205 212.863,162.267 211.312,160.411 210.756 C 159.558 210.500,158.319 209.798,157.660 209.196 C 155.417 207.147,153.370 206.484,147.878 206.026 C 140.400 205.404,128.119 205.493,126.537 206.181 M242.862 206.011 C 237.377 206.809,237.140 207.585,236.906 225.579 C 236.562 252.024,236.132 251.159,249.800 251.500 C 264.575 251.868,271.542 250.841,274.235 247.897 C 275.096 246.956,276.857 245.654,278.148 245.003 C 280.998 243.567,281.931 242.360,283.403 238.200 C 284.026 236.440,284.761 234.640,285.037 234.200 C 287.036 231.006,287.128 227.133,285.297 223.191 C 284.636 221.766,283.627 219.294,283.055 217.698 C 281.603 213.643,281.073 212.987,278.132 211.598 C 276.708 210.925,274.638 209.752,273.532 208.991 C 269.267 206.057,253.245 204.500,242.862 206.011 M145.741 208.196 C 149.979 208.588,152.500 209.007,153.341 209.460 C 156.581 211.202,159.039 212.383,159.444 212.391 C 160.105 212.404,163.600 215.588,163.600 216.178 C 163.600 216.458,164.294 217.478,165.141 218.444 C 167.949 221.643,168.166 222.359,168.156 228.400 C 168.145 234.412,168.018 234.839,165.233 238.209 C 164.335 239.296,163.600 240.364,163.600 240.583 C 163.600 241.193,160.790 243.574,159.000 244.481 C 158.120 244.927,156.500 245.969,155.400 246.798 C 152.627 248.887,150.188 249.263,138.000 249.486 L 127.800 249.672 126.400 248.721 C 125.058 247.810,124.987 247.637,124.685 244.585 C 124.316 240.840,124.590 211.913,125.011 210.284 C 125.723 207.530,131.861 206.912,145.741 208.196 M259.349 208.041 C 266.846 208.523,266.194 208.334,275.815 212.816 C 279.611 214.584,279.627 214.600,280.999 218.200 C 283.773 225.482,283.777 231.333,281.011 238.574 C 279.859 241.588,279.494 241.992,276.814 243.216 C 275.832 243.664,274.932 244.160,274.814 244.317 C 274.350 244.936,271.282 246.814,269.134 247.794 C 263.503 250.362,243.464 250.365,240.478 247.797 L 239.400 246.870 239.269 231.335 C 239.138 215.760,239.428 210.934,240.592 209.343 C 241.695 207.835,248.647 207.352,259.349 208.041 " stroke="none" fill="#848484" fill-rule="evenodd"></path><path id="path3" d="M99.200 123.964 C 94.513 124.486,92.993 125.838,92.389 130.021 C 92.171 131.531,92.013 160.372,92.008 199.627 C 91.999 275.008,91.749 269.076,95.087 272.664 L 97.000 274.721 101.600 274.994 C 104.130 275.144,116.100 275.207,128.200 275.133 C 152.051 274.989,152.116 274.983,154.785 272.627 C 155.369 272.112,159.681 271.535,167.000 270.992 C 172.872 270.556,175.711 269.201,176.597 266.411 C 176.751 265.924,177.418 265.472,178.324 265.239 C 182.725 264.109,183.547 263.826,185.155 262.886 C 186.120 262.321,187.242 261.306,187.649 260.630 C 188.055 259.953,189.462 258.441,190.774 257.269 C 192.086 256.098,193.599 254.388,194.136 253.469 C 195.065 251.880,195.319 251.130,196.433 246.684 C 196.710 245.578,197.233 244.597,197.669 244.363 C 202.751 241.643,203.204 220.251,198.288 215.166 C 197.446 214.294,196.561 212.642,195.843 210.600 C 194.595 207.051,194.098 206.340,191.878 204.929 C 190.912 204.316,190.091 203.344,189.632 202.275 C 188.719 200.144,188.398 199.890,184.776 198.424 C 183.139 197.762,181.620 196.900,181.400 196.510 C 181.180 196.119,179.948 194.775,178.663 193.522 C 176.030 190.958,176.040 190.657,178.786 189.841 C 181.834 188.936,182.407 188.483,183.428 186.175 C 184.194 184.444,184.677 183.895,185.876 183.394 C 188.191 182.427,188.710 181.738,189.792 178.188 C 190.346 176.372,191.061 174.785,191.381 174.663 C 196.091 172.855,196.867 152.904,192.410 148.200 C 191.380 147.113,190.742 145.958,190.422 144.600 C 189.580 141.030,187.740 138.496,184.596 136.577 C 183.058 135.638,180.879 133.976,179.753 132.885 C 177.573 130.771,176.356 130.255,170.600 129.005 C 168.586 128.568,167.029 127.976,166.400 127.407 C 162.852 124.201,160.575 123.989,127.800 123.813 C 113.500 123.736,100.630 123.804,99.200 123.964 M213.400 124.320 C 211.229 125.114,209.600 126.980,209.600 128.672 C 209.600 129.197,209.330 130.272,209.000 131.062 C 208.132 133.140,208.085 266.840,208.952 267.560 C 209.255 267.812,209.608 268.538,209.735 269.173 C 210.099 270.996,213.174 274.491,214.780 274.907 C 215.536 275.103,227.388 275.203,241.176 275.131 L 266.200 275.000 268.000 274.053 C 268.990 273.533,270.070 272.883,270.400 272.609 C 270.991 272.120,276.291 271.425,282.643 271.005 C 287.623 270.676,289.629 269.930,291.683 267.645 C 293.155 266.009,293.931 265.535,296.611 264.634 C 300.728 263.252,301.493 262.717,302.408 260.582 C 303.085 259.003,303.338 258.787,304.791 258.555 C 306.739 258.244,308.400 256.510,308.400 254.788 C 308.400 253.347,309.173 251.600,309.810 251.600 C 310.657 251.600,312.398 249.972,313.166 248.462 C 314.637 245.571,315.831 231.318,315.182 224.400 C 314.027 212.072,313.836 211.412,310.961 209.802 C 309.771 209.136,309.317 208.532,308.748 206.856 C 307.200 202.304,302.788 198.592,297.558 197.443 C 296.762 197.268,296.215 196.602,295.234 194.608 C 294.528 193.175,293.583 191.805,293.134 191.565 C 292.382 191.162,292.470 191.052,294.259 190.153 C 298.090 188.229,299.633 187.106,300.426 185.665 C 301.614 183.506,302.999 181.645,305.071 179.420 C 307.807 176.483,308.253 175.105,308.635 168.400 C 309.670 150.256,308.292 142.023,304.137 141.526 C 303.277 141.423,302.989 141.080,302.571 139.657 C 301.882 137.312,300.683 136.140,298.241 135.424 C 296.556 134.931,296.060 134.564,295.400 133.320 C 294.417 131.469,292.121 130.138,288.947 129.579 C 283.008 128.533,282.471 128.367,281.826 127.384 C 279.794 124.282,276.934 124.020,242.600 123.779 C 216.977 123.600,215.284 123.631,213.400 124.320 M153.800 126.304 C 156.220 126.743,158.899 127.395,159.753 127.753 C 160.608 128.111,163.218 128.873,165.553 129.446 C 172.726 131.207,174.484 131.868,176.304 133.485 C 177.242 134.318,179.100 135.623,180.434 136.385 C 184.226 138.550,187.987 142.782,189.158 146.202 C 189.685 147.741,190.630 149.956,191.259 151.125 C 193.733 155.729,193.701 164.147,191.187 169.800 C 190.992 170.240,190.176 172.310,189.374 174.400 C 187.363 179.642,187.006 180.246,185.103 181.624 C 184.186 182.289,182.745 183.806,181.901 184.995 C 180.713 186.670,179.806 187.430,177.883 188.362 C 174.022 190.235,173.254 190.955,174.110 191.901 C 174.490 192.320,174.800 192.838,174.800 193.053 C 174.800 194.560,177.521 196.956,181.551 198.996 C 188.737 202.634,193.090 207.793,195.954 216.064 C 196.818 218.559,197.943 221.680,198.454 223.000 C 200.044 227.108,199.758 233.967,197.800 238.644 C 196.982 240.600,195.955 243.280,195.519 244.600 C 193.842 249.674,193.536 250.324,191.893 252.314 C 190.962 253.441,189.602 255.191,188.872 256.202 C 188.141 257.214,187.104 258.208,186.566 258.413 C 186.029 258.617,184.959 259.415,184.188 260.185 C 182.616 261.757,181.496 262.401,178.165 263.647 C 176.900 264.121,175.112 265.202,174.192 266.050 C 171.828 268.229,169.511 269.123,164.956 269.614 C 162.780 269.849,157.400 270.484,153.000 271.025 C 136.178 273.094,98.752 272.365,96.120 269.917 C 93.377 267.366,93.576 273.155,93.695 199.292 C 93.822 120.526,93.262 127.261,99.800 125.840 C 104.442 124.832,147.735 125.203,153.800 126.304 M268.673 126.145 C 270.913 126.519,274.243 127.295,276.073 127.867 C 277.903 128.440,281.560 129.494,284.200 130.209 C 290.394 131.888,290.688 132.016,292.673 133.916 C 293.593 134.796,295.324 135.979,296.519 136.545 C 298.486 137.475,301.200 139.920,301.200 140.762 C 301.200 140.946,302.183 142.072,303.385 143.264 C 307.453 147.300,308.776 154.706,307.599 166.858 C 307.025 172.779,306.612 174.026,304.552 176.047 C 303.579 177.002,302.390 178.594,301.910 179.585 C 300.641 182.207,294.984 187.628,291.622 189.444 L 288.829 190.953 290.214 192.644 C 290.976 193.574,291.600 194.494,291.600 194.689 C 291.600 195.744,294.425 197.949,297.063 198.953 C 298.768 199.601,300.421 200.559,301.148 201.321 C 303.086 203.350,303.704 203.935,305.284 205.234 C 306.100 205.906,307.256 207.477,307.853 208.727 C 308.450 209.977,309.452 211.422,310.080 211.938 C 315.329 216.248,315.345 241.774,310.103 248.128 C 309.276 249.129,308.166 251.046,307.635 252.387 C 306.733 254.665,304.237 257.600,303.201 257.600 C 302.984 257.600,301.735 258.654,300.426 259.942 C 298.400 261.938,297.517 262.476,294.471 263.574 C 291.878 264.510,290.439 265.302,289.237 266.457 C 286.998 268.608,285.533 269.142,280.493 269.645 C 278.132 269.880,273.500 270.447,270.200 270.906 C 264.269 271.730,218.464 272.504,215.761 271.826 C 214.407 271.486,212.462 269.689,211.582 267.966 C 210.482 265.809,210.340 134.898,211.434 130.658 C 212.115 128.017,212.718 127.115,214.600 125.929 C 216.310 124.850,262.026 125.033,268.673 126.145 M126.684 151.580 L 125.200 152.883 125.200 166.059 C 125.200 179.907,125.612 183.882,127.170 185.087 C 129.393 186.807,144.856 185.295,148.191 183.032 C 149.031 182.462,150.597 181.735,151.672 181.416 C 154.318 180.630,155.856 179.457,156.851 177.466 C 157.310 176.550,158.323 175.135,159.103 174.322 C 161.946 171.356,161.944 159.854,159.100 158.486 C 158.139 158.023,157.473 157.331,154.308 153.501 C 152.710 151.567,148.573 150.833,137.584 150.534 L 128.167 150.278 126.684 151.580 M243.869 151.188 C 239.737 152.508,240.000 151.527,240.000 165.642 C 240.000 185.215,240.152 185.506,250.427 185.569 C 255.761 185.602,259.573 185.098,260.984 184.174 C 261.456 183.864,262.850 183.264,264.082 182.841 C 265.313 182.417,266.744 181.806,267.260 181.483 C 267.777 181.161,269.100 180.576,270.200 180.184 C 272.804 179.257,273.156 178.897,274.045 176.263 C 275.618 171.604,276.080 166.445,275.313 162.099 L 274.625 158.200 271.907 155.542 C 268.157 151.873,266.968 151.397,260.187 150.852 C 251.920 150.187,246.664 150.295,243.869 151.188 M148.953 152.830 C 150.802 153.295,152.754 154.850,154.133 156.955 C 154.490 157.499,155.308 158.255,155.951 158.635 C 156.595 159.015,157.505 160.095,157.974 161.034 C 158.443 161.974,159.045 162.815,159.312 162.904 C 160.089 163.163,159.867 169.442,159.050 170.345 C 158.692 170.740,158.400 171.245,158.400 171.466 C 158.400 171.688,157.698 172.608,156.839 173.510 C 155.776 174.629,155.191 175.669,155.004 176.778 C 154.689 178.638,153.610 179.600,151.837 179.600 C 151.186 179.600,149.651 179.858,148.426 180.173 C 141.139 182.047,136.412 182.781,131.553 182.792 L 128.105 182.800 127.453 180.474 C 126.443 176.875,126.482 153.820,127.500 152.677 C 128.309 151.768,145.214 151.888,148.953 152.830 M260.245 152.397 C 266.328 152.813,267.200 152.992,267.200 153.829 C 267.200 154.760,269.576 157.130,270.972 157.591 C 273.572 158.449,273.735 158.926,273.743 165.706 C 273.756 176.293,271.962 178.913,263.800 180.230 C 262.920 180.373,260.017 181.017,257.350 181.663 C 253.730 182.539,251.756 182.807,249.572 182.719 L 246.644 182.600 244.922 180.485 L 243.200 178.370 243.200 165.843 L 243.200 153.317 245.100 152.683 C 247.343 151.935,252.148 151.844,260.245 152.397 M127.105 209.100 C 125.431 210.991,125.134 214.565,125.270 231.138 L 125.400 246.877 126.600 247.865 L 127.800 248.854 137.600 248.663 C 148.981 248.441,152.629 247.870,154.600 246.001 C 155.260 245.375,156.790 244.408,158.000 243.854 C 160.765 242.585,162.089 241.433,163.117 239.400 C 163.563 238.520,164.486 237.269,165.170 236.619 C 168.321 233.626,168.343 223.668,165.206 220.241 C 164.380 219.338,163.338 217.880,162.891 217.000 C 161.421 214.108,160.794 213.746,151.400 210.372 C 145.707 208.327,128.582 207.431,127.105 209.100 M244.209 208.941 C 240.339 210.108,239.845 212.851,240.068 231.930 C 240.215 244.501,240.321 246.493,240.875 247.047 C 243.151 249.322,263.192 249.477,267.445 247.251 C 268.525 246.686,270.561 245.569,275.717 242.711 C 276.401 242.332,277.427 241.860,277.998 241.661 C 282.554 240.072,282.866 217.516,278.364 215.144 C 275.875 213.833,272.638 212.405,270.800 211.807 C 269.590 211.413,267.880 210.723,267.000 210.275 C 263.685 208.585,248.365 207.688,244.209 208.941 M149.768 213.201 C 160.132 214.931,160.553 215.095,160.946 217.550 C 161.079 218.382,161.639 219.679,162.191 220.432 C 162.742 221.184,163.450 222.344,163.764 223.008 C 164.077 223.673,164.709 224.555,165.167 224.970 C 166.351 226.042,166.376 230.335,165.205 231.395 C 164.768 231.791,164.192 232.719,163.925 233.457 C 163.658 234.196,163.299 234.800,163.128 234.800 C 162.616 234.800,161.166 237.953,160.864 239.724 L 160.583 241.373 157.425 242.093 C 155.688 242.489,154.072 242.964,153.833 243.150 C 153.595 243.336,152.816 243.598,152.102 243.733 C 150.745 243.990,148.896 244.825,146.200 246.399 C 144.668 247.293,144.244 247.334,136.231 247.366 L 127.863 247.400 127.475 246.200 C 126.709 243.831,126.638 216.479,127.391 213.889 L 128.057 211.600 134.128 211.602 C 139.341 211.603,141.554 211.830,149.768 213.201 M262.400 212.585 C 264.270 212.936,267.278 213.483,269.085 213.800 C 277.571 215.289,279.712 218.239,279.697 228.423 C 279.683 237.875,276.353 242.800,269.975 242.800 C 269.616 242.800,267.360 243.777,264.961 244.972 L 260.600 247.143 254.763 247.427 C 251.552 247.582,248.099 247.586,247.089 247.434 L 245.252 247.159 244.226 244.078 C 243.211 241.030,243.200 240.863,243.200 228.281 L 243.200 215.566 245.100 213.533 L 247.000 211.500 253.000 211.723 C 256.300 211.845,260.530 212.233,262.400 212.585 " stroke="none" fill="#4a4a4a" fill-rule="evenodd"></path><path id="path4" d="M147.200 1.600 L 147.200 3.200 138.574 3.200 C 128.451 3.200,128.402 3.214,128.394 6.114 C 128.385 9.236,128.705 9.111,119.687 9.518 C 110.318 9.941,110.209 9.984,109.785 13.383 L 109.522 15.484 104.355 15.757 C 97.433 16.123,97.200 16.268,97.200 20.209 L 97.200 21.966 94.100 22.083 L 91.000 22.200 90.876 23.700 C 90.808 24.525,90.559 25.200,90.323 25.200 C 90.087 25.200,89.296 25.834,88.565 26.610 C 87.269 27.984,87.139 28.025,83.384 28.272 C 78.719 28.579,78.400 28.819,78.400 32.029 L 78.400 34.400 75.829 34.400 C 72.453 34.400,72.000 34.853,72.000 38.229 L 72.000 40.800 69.043 40.800 C 65.629 40.800,65.600 40.830,65.600 44.433 L 65.600 46.800 63.089 46.800 C 61.628 46.800,60.248 47.027,59.789 47.343 C 59.355 47.642,58.311 48.110,57.469 48.384 C 55.958 48.876,54.413 50.693,54.395 52.000 C 54.384 52.737,52.688 54.399,51.944 54.401 C 50.698 54.405,48.868 55.982,48.384 57.469 C 48.110 58.311,47.642 59.355,47.343 59.789 C 47.027 60.248,46.800 61.628,46.800 63.089 L 46.800 65.600 44.433 65.600 C 40.830 65.600,40.800 65.629,40.800 69.043 L 40.800 72.000 38.229 72.000 C 34.853 72.000,34.400 72.453,34.400 75.829 L 34.400 78.400 32.029 78.400 C 28.819 78.400,28.579 78.719,28.272 83.384 C 28.025 87.139,27.984 87.269,26.610 88.565 C 25.834 89.296,25.200 90.087,25.200 90.323 C 25.200 90.559,24.525 90.808,23.700 90.876 L 22.200 91.000 22.083 94.100 L 21.966 97.200 20.209 97.200 C 16.268 97.200,16.123 97.433,15.757 104.355 L 15.484 109.522 13.383 109.785 C 9.984 110.209,9.941 110.318,9.518 119.687 C 9.111 128.705,9.236 128.385,6.114 128.394 C 3.214 128.402,3.200 128.451,3.200 138.574 L 3.200 147.200 1.600 147.200 L 0.000 147.200 0.000 200.200 L 0.000 253.200 1.600 253.200 L 3.200 253.200 3.200 261.724 C 3.200 271.749,3.135 271.561,6.717 271.886 L 9.200 272.111 9.222 273.556 C 9.446 288.064,9.874 289.777,13.383 290.215 L 15.484 290.478 15.757 295.645 C 16.123 302.567,16.268 302.800,20.209 302.800 L 21.966 302.800 22.083 305.900 L 22.200 309.000 23.700 309.124 C 24.525 309.192,25.200 309.441,25.200 309.677 C 25.200 309.913,25.834 310.704,26.610 311.435 C 27.984 312.731,28.025 312.861,28.272 316.616 C 28.571 321.171,28.784 321.468,32.010 321.833 L 34.400 322.103 34.400 324.423 C 34.400 327.520,34.914 328.000,38.229 328.000 L 40.800 328.000 40.800 330.957 C 40.800 334.371,40.830 334.400,44.433 334.400 L 46.800 334.400 46.800 336.911 C 46.800 338.372,47.027 339.752,47.343 340.211 C 47.642 340.645,48.110 341.689,48.384 342.531 C 48.868 344.018,50.698 345.595,51.944 345.599 C 52.688 345.601,54.384 347.263,54.395 348.000 C 54.414 349.378,55.975 351.160,57.586 351.643 C 58.479 351.911,59.409 352.370,59.654 352.665 C 59.946 353.017,61.039 353.200,62.849 353.200 L 65.600 353.200 65.600 355.567 C 65.600 359.170,65.629 359.200,69.043 359.200 L 72.000 359.200 72.000 361.771 C 72.000 365.147,72.453 365.600,75.829 365.600 L 78.400 365.600 78.406 367.900 C 78.415 371.411,79.298 371.970,84.854 371.990 C 87.251 371.999,87.573 372.099,88.175 373.018 C 88.542 373.578,89.273 374.233,89.800 374.473 C 90.510 374.796,90.790 375.284,90.879 376.355 L 91.000 377.800 94.100 377.917 L 97.200 378.034 97.200 379.791 C 97.200 383.732,97.433 383.877,104.355 384.243 L 109.522 384.516 109.785 386.617 C 110.220 390.099,112.357 390.800,122.534 390.800 C 128.602 390.800,128.400 390.689,128.400 394.019 C 128.400 396.766,128.525 396.800,138.574 396.800 L 147.200 396.800 147.200 398.400 L 147.200 400.000 200.200 400.000 L 253.200 400.000 253.200 398.400 L 253.200 396.800 261.724 396.800 C 271.808 396.800,271.658 396.852,271.919 393.254 L 272.096 390.800 277.748 390.797 C 287.922 390.792,289.832 390.133,290.265 386.479 L 290.511 384.400 293.356 384.379 C 301.331 384.322,302.389 383.888,302.750 380.530 L 303.000 378.200 306.000 378.000 L 309.000 377.800 309.121 376.355 C 309.210 375.284,309.490 374.796,310.200 374.473 C 310.727 374.233,311.458 373.578,311.825 373.018 C 312.436 372.085,312.731 372.000,315.346 371.998 C 320.789 371.994,321.991 371.072,321.998 366.900 L 322.000 365.600 324.371 365.600 C 327.525 365.600,328.000 365.099,328.000 361.771 L 328.000 359.200 330.957 359.200 C 334.371 359.200,334.400 359.170,334.400 355.567 L 334.400 353.200 337.380 353.200 C 339.468 353.200,340.456 353.037,340.680 352.657 C 340.856 352.358,341.689 351.889,342.531 351.615 C 344.042 351.124,345.587 349.307,345.605 348.000 C 345.616 347.263,347.312 345.601,348.056 345.599 C 349.302 345.595,351.132 344.018,351.615 342.531 C 351.889 341.689,352.358 340.856,352.657 340.680 C 353.037 340.456,353.200 339.468,353.200 337.380 L 353.200 334.400 355.567 334.400 C 359.170 334.400,359.200 334.371,359.200 330.957 L 359.200 328.000 361.771 328.000 C 365.099 328.000,365.600 327.525,365.600 324.371 L 365.600 322.000 366.900 321.998 C 371.072 321.991,371.994 320.789,371.998 315.346 C 372.000 312.731,372.085 312.436,373.018 311.825 C 373.578 311.458,374.233 310.727,374.473 310.200 C 374.796 309.490,375.284 309.210,376.355 309.121 L 377.800 309.000 378.000 306.000 L 378.200 303.000 380.530 302.750 C 383.888 302.389,384.322 301.331,384.379 293.356 L 384.400 290.511 386.479 290.265 C 390.133 289.832,390.792 287.922,390.797 277.748 L 390.800 272.096 393.254 271.919 C 396.852 271.658,396.800 271.808,396.800 261.724 L 396.800 253.200 398.400 253.200 L 400.000 253.200 400.000 200.200 L 400.000 147.200 398.400 147.200 L 396.800 147.200 396.800 138.574 C 396.800 128.525,396.766 128.400,394.019 128.400 C 390.689 128.400,390.800 128.602,390.800 122.534 C 390.800 112.357,390.099 110.220,386.617 109.785 L 384.516 109.522 384.243 104.355 C 383.877 97.433,383.732 97.200,379.791 97.200 L 378.034 97.200 377.917 94.100 L 377.800 91.000 376.355 90.879 C 375.284 90.790,374.796 90.510,374.473 89.800 C 374.233 89.273,373.578 88.542,373.018 88.175 C 372.099 87.573,371.999 87.251,371.990 84.854 C 371.970 79.298,371.411 78.415,367.900 78.406 L 365.600 78.400 365.600 75.829 C 365.600 72.453,365.147 72.000,361.771 72.000 L 359.200 72.000 359.200 69.043 C 359.200 65.629,359.170 65.600,355.567 65.600 L 353.200 65.600 353.200 62.849 C 353.200 61.039,353.017 59.946,352.665 59.654 C 352.370 59.409,351.911 58.479,351.643 57.586 C 351.168 55.999,349.372 54.405,348.056 54.401 C 347.312 54.399,345.616 52.737,345.605 52.000 C 345.587 50.693,344.042 48.876,342.531 48.384 C 341.689 48.110,340.645 47.642,340.211 47.343 C 339.752 47.027,338.372 46.800,336.911 46.800 L 334.400 46.800 334.400 44.433 C 334.400 40.830,334.371 40.800,330.957 40.800 L 328.000 40.800 328.000 38.229 C 328.000 34.914,327.520 34.400,324.423 34.400 L 322.103 34.400 321.833 32.010 C 321.468 28.784,321.171 28.571,316.616 28.272 C 312.861 28.025,312.731 27.984,311.435 26.610 C 310.704 25.834,309.913 25.200,309.677 25.200 C 309.441 25.200,309.192 24.525,309.124 23.700 L 309.000 22.200 305.900 22.083 L 302.800 21.966 302.800 20.209 C 302.800 16.268,302.567 16.123,295.645 15.757 L 290.478 15.484 290.215 13.383 C 289.777 9.874,288.064 9.446,273.556 9.222 L 272.111 9.200 271.886 6.717 C 271.561 3.135,271.749 3.200,261.724 3.200 L 253.200 3.200 253.200 1.600 L 253.200 0.000 200.200 0.000 L 147.200 0.000 147.200 1.600 M158.466 124.508 C 163.158 125.066,164.251 125.466,166.400 127.407 C 167.029 127.976,168.586 128.568,170.600 129.005 C 176.356 130.255,177.573 130.771,179.753 132.885 C 180.879 133.976,183.058 135.638,184.596 136.577 C 187.740 138.496,189.580 141.030,190.422 144.600 C 190.742 145.958,191.380 147.113,192.410 148.200 C 196.867 152.904,196.091 172.855,191.381 174.663 C 191.061 174.785,190.346 176.372,189.792 178.188 C 188.710 181.738,188.191 182.427,185.876 183.394 C 184.677 183.895,184.194 184.444,183.428 186.175 C 182.407 188.483,181.834 188.936,178.786 189.841 C 176.040 190.657,176.030 190.958,178.663 193.522 C 179.948 194.775,181.180 196.119,181.400 196.510 C 181.620 196.900,183.139 197.762,184.776 198.424 C 188.398 199.890,188.719 200.144,189.632 202.275 C 190.091 203.344,190.912 204.316,191.878 204.929 C 194.098 206.340,194.595 207.051,195.843 210.600 C 196.561 212.642,197.446 214.294,198.288 215.166 C 203.204 220.251,202.751 241.643,197.669 244.363 C 197.233 244.597,196.710 245.578,196.433 246.684 C 195.319 251.130,195.065 251.880,194.136 253.469 C 193.599 254.388,192.086 256.098,190.774 257.269 C 189.462 258.441,188.055 259.953,187.649 260.630 C 187.242 261.306,186.120 262.321,185.155 262.886 C 183.547 263.826,182.725 264.109,178.324 265.239 C 177.418 265.472,176.751 265.924,176.597 266.411 C 175.711 269.201,172.872 270.556,167.000 270.992 C 159.681 271.535,155.369 272.112,154.785 272.627 C 152.116 274.983,152.051 274.989,128.200 275.133 C 116.100 275.207,104.130 275.144,101.600 274.994 L 97.000 274.721 95.087 272.664 C 91.749 269.076,91.999 275.008,92.008 199.627 C 92.017 123.246,91.864 126.586,95.436 124.827 C 98.088 123.521,148.048 123.268,158.466 124.508 M274.419 124.486 C 279.250 125.025,280.636 125.568,281.826 127.384 C 282.471 128.367,283.008 128.533,288.947 129.579 C 292.121 130.138,294.417 131.469,295.400 133.320 C 296.060 134.564,296.556 134.931,298.241 135.424 C 300.683 136.140,301.882 137.312,302.571 139.657 C 302.989 141.080,303.277 141.423,304.137 141.526 C 308.292 142.023,309.670 150.256,308.635 168.400 C 308.253 175.105,307.807 176.483,305.071 179.420 C 302.999 181.645,301.614 183.506,300.426 185.665 C 299.633 187.106,298.090 188.229,294.259 190.153 C 292.470 191.052,292.382 191.162,293.134 191.565 C 293.583 191.805,294.528 193.175,295.234 194.608 C 296.215 196.602,296.762 197.268,297.558 197.443 C 302.788 198.592,307.200 202.304,308.748 206.856 C 309.317 208.532,309.771 209.136,310.961 209.802 C 313.836 211.412,314.027 212.072,315.182 224.400 C 315.831 231.318,314.637 245.571,313.166 248.462 C 312.398 249.972,310.657 251.600,309.810 251.600 C 309.173 251.600,308.400 253.347,308.400 254.788 C 308.400 256.510,306.739 258.244,304.791 258.555 C 303.338 258.787,303.085 259.003,302.408 260.582 C 301.493 262.717,300.728 263.252,296.611 264.634 C 293.931 265.535,293.155 266.009,291.683 267.645 C 289.629 269.930,287.623 270.676,282.643 271.005 C 276.291 271.425,270.991 272.120,270.400 272.609 C 270.070 272.883,268.990 273.533,268.000 274.053 L 266.200 275.000 241.176 275.131 C 227.388 275.203,215.536 275.103,214.780 274.907 C 213.174 274.491,210.099 270.996,209.735 269.173 C 209.608 268.538,209.255 267.812,208.952 267.560 C 208.085 266.840,208.132 133.140,209.000 131.062 C 209.330 130.272,209.600 129.197,209.600 128.672 C 209.600 126.980,211.229 125.114,213.400 124.320 C 215.892 123.409,265.999 123.545,274.419 124.486 M127.500 152.677 C 126.482 153.820,126.443 176.875,127.453 180.474 L 128.105 182.800 131.553 182.792 C 136.412 182.781,141.139 182.047,148.426 180.173 C 149.651 179.858,151.186 179.600,151.837 179.600 C 153.610 179.600,154.689 178.638,155.004 176.778 C 155.191 175.669,155.776 174.629,156.839 173.510 C 157.698 172.608,158.400 171.688,158.400 171.466 C 158.400 171.245,158.692 170.740,159.050 170.345 C 159.867 169.442,160.089 163.163,159.312 162.904 C 159.045 162.815,158.443 161.974,157.974 161.034 C 157.505 160.095,156.595 159.015,155.951 158.635 C 155.308 158.255,154.490 157.499,154.133 156.955 C 151.451 152.860,149.988 152.432,137.643 152.125 C 128.600 151.900,128.170 151.924,127.500 152.677 M245.100 152.683 L 243.200 153.317 243.200 165.843 L 243.200 178.370 244.922 180.485 L 246.644 182.600 249.572 182.719 C 251.756 182.807,253.730 182.539,257.350 181.663 C 260.017 181.017,262.920 180.373,263.800 180.230 C 271.962 178.913,273.756 176.293,273.743 165.706 C 273.735 158.926,273.572 158.449,270.972 157.591 C 269.576 157.130,267.200 154.760,267.200 153.829 C 267.200 152.257,249.179 151.323,245.100 152.683 M127.391 213.889 C 126.638 216.479,126.709 243.831,127.475 246.200 L 127.863 247.400 136.231 247.366 C 144.244 247.334,144.668 247.293,146.200 246.399 C 148.896 244.825,150.745 243.990,152.102 243.733 C 152.816 243.598,153.595 243.336,153.833 243.150 C 154.072 242.964,155.688 242.489,157.425 242.093 L 160.583 241.373 160.864 239.724 C 161.166 237.953,162.616 234.800,163.128 234.800 C 163.299 234.800,163.658 234.196,163.925 233.457 C 164.192 232.719,164.768 231.791,165.205 231.395 C 166.376 230.335,166.351 226.042,165.167 224.970 C 164.709 224.555,164.077 223.673,163.764 223.008 C 163.450 222.344,162.742 221.184,162.191 220.432 C 161.639 219.679,161.079 218.382,160.946 217.550 C 160.553 215.095,160.132 214.931,149.768 213.201 C 141.554 211.830,139.341 211.603,134.128 211.602 L 128.057 211.600 127.391 213.889 M245.100 213.533 L 243.200 215.566 243.200 228.281 C 243.200 240.863,243.211 241.030,244.226 244.078 L 245.252 247.159 247.089 247.434 C 248.099 247.586,251.552 247.582,254.763 247.427 L 260.600 247.143 264.961 244.972 C 267.360 243.777,269.616 242.800,269.975 242.800 C 276.353 242.800,279.683 237.875,279.697 228.423 C 279.712 218.239,277.571 215.289,269.085 213.800 C 267.278 213.483,264.270 212.936,262.400 212.585 C 260.530 212.233,256.300 211.845,253.000 211.723 L 247.000 211.500 245.100 213.533 " stroke="none" fill="#040404" fill-rule="evenodd"></path></g></svg>