<?xml version="1.0" standalone="no"?>
<!DOCTYPE svg PUBLIC "-//W3C//DTD SVG 20010904//EN"
 "http://www.w3.org/TR/2001/REC-SVG-20010904/DTD/svg10.dtd">
<svg version="1.0" xmlns="http://www.w3.org/2000/svg"
 width="64.000000pt" height="64.000000pt" viewBox="0 0 64.000000 64.000000"
 preserveAspectRatio="xMidYMid meet">

<g transform="translate(0.000000,64.000000) scale(0.100000,-0.100000)"
fill="#000000" stroke="none">
<path d="M0 320 l0 -320 320 0 320 0 0 320 0 320 -320 0 -320 0 0 -320z m410
151 c0 -25 -4 -30 -27 -33 -22 -2 -29 -9 -31 -30 -3 -25 0 -28 26 -28 26 0 28
-3 24 -30 -3 -24 -9 -30 -28 -30 -24 0 -24 -2 -24 -91 l0 -90 -32 3 -33 3 -3
88 c-3 79 -5 87 -22 87 -16 0 -20 7 -20 30 0 23 5 30 19 30 15 0 21 10 26 43
10 59 29 77 82 77 41 0 43 -1 43 -29z"/>
</g>
</svg>
